<svg aria-hidden="true" style="position: absolute; width: 0; height: 0; overflow: hidden;" version="1.1" xmlns="http://www.w3.org/2000/svg" xmlns:xlink="http://www.w3.org/1999/xlink">
<defs>
<symbol id="icon-format_quote" viewBox="0 0 24 24">
<path d="M14.016 17.016l1.969-4.031h-3v-6h6v6l-1.969 4.031h-3zM6 17.016l2.016-4.031h-3v-6h6v6l-2.016 4.031h-3z"></path>
</symbol>
<symbol id="icon-format_bold" viewBox="0 0 24 24">
<path d="M13.5 15.516q0.656 0 1.078-0.445t0.422-1.055-0.422-1.055-1.078-0.445h-3.516v3h3.516zM9.984 6.516v3h3q0.609 0 1.055-0.445t0.445-1.055-0.445-1.055-1.055-0.445h-3zM15.609 10.781q2.156 0.984 2.156 3.422 0 1.594-1.055 2.695t-2.648 1.102h-7.078v-14.016h6.281q1.688 0 2.836 1.172t1.148 2.859-1.641 2.766z"></path>
</symbol>
<symbol id="icon-format_italic" viewBox="0 0 24 24">
<path d="M9.984 3.984h8.016v3h-2.813l-3.375 8.016h2.203v3h-8.016v-3h2.813l3.375-8.016h-2.203v-3z"></path>
</symbol>
<symbol id="icon-format_list_bulleted" viewBox="0 0 24 24">
<path d="M6.984 5.016h14.016v1.969h-14.016v-1.969zM6.984 12.984v-1.969h14.016v1.969h-14.016zM6.984 18.984v-1.969h14.016v1.969h-14.016zM3.984 16.5q0.609 0 1.055 0.445t0.445 1.055-0.445 1.055-1.055 0.445-1.055-0.445-0.445-1.055 0.445-1.055 1.055-0.445zM3.984 4.5q0.609 0 1.055 0.422t0.445 1.078-0.445 1.078-1.055 0.422-1.055-0.422-0.445-1.078 0.445-1.078 1.055-0.422zM3.984 10.5q0.609 0 1.055 0.422t0.445 1.078-0.445 1.078-1.055 0.422-1.055-0.422-0.445-1.078 0.445-1.078 1.055-0.422z"></path>
</symbol>
<symbol id="icon-format_list_numbered" viewBox="0 0 24 24">
<path d="M6.984 12.984v-1.969h14.016v1.969h-14.016zM6.984 18.984v-1.969h14.016v1.969h-14.016zM6.984 5.016h14.016v1.969h-14.016v-1.969zM2.016 11.016v-1.031h3v0.938l-1.828 2.063h1.828v1.031h-3v-0.938l1.781-2.063h-1.781zM3 8.016v-3h-0.984v-1.031h1.969v4.031h-0.984zM2.016 17.016v-1.031h3v4.031h-3v-1.031h1.969v-0.469h-0.984v-1.031h0.984v-0.469h-1.969z"></path>
</symbol>
<symbol id="icon-format_underlined" viewBox="0 0 24 24">
<path d="M5.016 18.984h13.969v2.016h-13.969v-2.016zM12 17.016q-2.484 0-4.242-1.758t-1.758-4.242v-8.016h2.484v8.016q0 1.453 1.031 2.461t2.484 1.008 2.484-1.008 1.031-2.461v-8.016h2.484v8.016q0 2.484-1.758 4.242t-4.242 1.758z"></path>
</symbol>
<symbol id="icon-code" viewBox="0 0 24 24">
<path d="M14.578 16.594l4.641-4.594-4.641-4.594 1.406-1.406 6 6-6 6zM9.422 16.594l-1.406 1.406-6-6 6-6 1.406 1.406-4.641 4.594z"></path>
</symbol>
<symbol id="icon-delete" viewBox="0 0 24 24">
<path d="M18.984 3.984v2.016h-13.969v-2.016h3.469l1.031-0.984h4.969l1.031 0.984h3.469zM6 18.984v-12h12v12q0 0.797-0.609 1.406t-1.406 0.609h-7.969q-0.797 0-1.406-0.609t-0.609-1.406z"></path>
</symbol>
<symbol id="icon-magnifying-glass" viewBox="0 0 20 20">
<path d="M17.545 15.467l-3.779-3.779c0.57-0.935 0.898-2.035 0.898-3.21 0-3.417-2.961-6.377-6.378-6.377s-6.186 2.769-6.186 6.186c0 3.416 2.961 6.377 6.377 6.377 1.137 0 2.2-0.309 3.115-0.844l3.799 3.801c0.372 0.371 0.975 0.371 1.346 0l0.943-0.943c0.371-0.371 0.236-0.84-0.135-1.211zM4.004 8.287c0-2.366 1.917-4.283 4.282-4.283s4.474 2.107 4.474 4.474c0 2.365-1.918 4.283-4.283 4.283s-4.473-2.109-4.473-4.474z"></path>
</symbol>
<symbol id="icon-plus" viewBox="0 0 20 20">
<path d="M16 10c0 0.553-0.048 1-0.601 1h-4.399v4.399c0 0.552-0.447 0.601-1 0.601s-1-0.049-1-0.601v-4.399h-4.399c-0.552 0-0.601-0.447-0.601-1s0.049-1 0.601-1h4.399v-4.399c0-0.553 0.447-0.601 1-0.601s1 0.048 1 0.601v4.399h4.399c0.553 0 0.601 0.447 0.601 1z"></path>
</symbol>
</defs>
</svg>
